<svg width="72" height="78" viewBox="0 0 72 78" fill="none" xmlns="http://www.w3.org/2000/svg">
<path d="M14.3936 59.0662C14.3936 59.8618 13.757 60.5068 12.9718 60.5068H1.59772C0.812508 60.5068 0.175964 59.8618 0.175964 59.0662V18.7283C0.175964 17.9327 0.812508 17.2877 1.59772 17.2877H12.9718C13.757 17.2877 14.3936 17.9327 14.3936 18.7283V59.0662Z" fill="url(#paint0_linear)"/>
<path d="M71.2641 59.0662C71.2641 59.8618 70.6275 60.5068 69.8423 60.5068H58.4682C57.683 60.5068 57.0464 59.8618 57.0464 59.0662V18.7283C57.0464 17.9327 57.683 17.2877 58.4682 17.2877H69.8423C70.6275 17.2877 71.2641 17.9327 71.2641 18.7283V59.0662Z" fill="url(#paint1_linear)"/>
<path d="M42.8288 1.44064C42.8288 0.644996 42.1923 0 41.4071 0H30.033C29.2477 0 28.6112 0.644996 28.6112 1.44064V30.2534C28.6112 31.049 29.2477 31.694 30.033 31.694H41.4071C42.1923 31.694 42.8288 31.049 42.8288 30.2534V1.44064Z" fill="url(#paint2_linear)"/>
<path d="M42.8288 47.5411C42.8288 46.7455 42.1923 46.1005 41.4071 46.1005H30.033C29.2477 46.1005 28.6112 46.7455 28.6112 47.5411V76.3539C28.6112 77.1495 29.2477 77.7945 30.033 77.7945H41.4071C42.1923 77.7945 42.8288 77.1495 42.8288 76.3539V47.5411Z" fill="url(#paint3_linear)"/>
<defs>
<linearGradient id="paint0_linear" x1="4.92425e-06" y1="-4.86645e-06" x2="71" y2="78" gradientUnits="userSpaceOnUse">
<stop stop-color="#FFFFFF"/>
<stop offset="1" stop-color="#FFFFFF"/>
</linearGradient>
<linearGradient id="paint1_linear" x1="4.92425e-06" y1="-4.86645e-06" x2="71" y2="78" gradientUnits="userSpaceOnUse">
<stop stop-color="#FFFFFF"/>
<stop offset="1" stop-color="#FFFFFF"/>
</linearGradient>
<linearGradient id="paint2_linear" x1="4.92425e-06" y1="-4.86645e-06" x2="71" y2="78" gradientUnits="userSpaceOnUse">
<stop stop-color="#FFFFFF"/>
<stop offset="1" stop-color="#FFFFFF"/>
</linearGradient>
<linearGradient id="paint3_linear" x1="4.92425e-06" y1="-4.86645e-06" x2="71" y2="78" gradientUnits="userSpaceOnUse">
<stop stop-color="#FFFFFF"/>
<stop offset="1" stop-color="#FFFFFF"/>
</linearGradient>
</defs>
</svg>
